<svg width="158" height="19" viewBox="0 0 158 19" fill="none" xmlns="http://www.w3.org/2000/svg">
<path d="M0.85 18.5V0.749999H4.3V18.5H0.85ZM21.2783 3.775H15.6033V18.5H12.1783V3.775H6.50332V0.749999H21.2783V3.775ZM25.3318 0.749999L29.7318 7.3L34.1068 0.749999H37.8568L31.7068 9.75L37.6568 18.5H33.9068L29.7318 12.2L25.5318 18.5H21.7568L27.7068 9.75L21.5568 0.749999H25.3318ZM57.9238 3.775H52.2488V18.5H48.8238V3.775H43.1488V0.749999H57.9238V3.775ZM63.4115 18.75C62.3615 18.75 61.4115 18.575 60.5615 18.225C59.7115 17.8583 58.9865 17.3667 58.3865 16.75C57.7865 16.1167 57.3199 15.4 56.9865 14.6C56.6699 13.7833 56.5115 12.925 56.5115 12.025C56.5115 10.775 56.7865 9.63333 57.3365 8.6C57.9032 7.56667 58.7032 6.74167 59.7365 6.125C60.7865 5.49167 62.0199 5.175 63.4365 5.175C64.8699 5.175 66.0949 5.49167 67.1115 6.125C68.1282 6.74167 68.9032 7.56667 69.4365 8.6C69.9865 9.61667 70.2615 10.7167 70.2615 11.9C70.2615 12.1 70.2532 12.3083 70.2365 12.525C70.2199 12.725 70.2032 12.8917 70.1865 13.025H60.0615C60.1282 13.6917 60.3199 14.275 60.6365 14.775C60.9699 15.275 61.3865 15.6583 61.8865 15.925C62.4032 16.175 62.9532 16.3 63.5365 16.3C64.2032 16.3 64.8282 16.1417 65.4115 15.825C66.0115 15.4917 66.4199 15.0583 66.6365 14.525L69.5115 15.325C69.1949 15.9917 68.7365 16.5833 68.1365 17.1C67.5532 17.6167 66.8615 18.025 66.0615 18.325C65.2615 18.6083 64.3782 18.75 63.4115 18.75ZM59.9865 10.9H66.8365C66.7699 10.2333 66.5782 9.65833 66.2615 9.175C65.9615 8.675 65.5615 8.29167 65.0615 8.025C64.5615 7.74167 64.0032 7.6 63.3865 7.6C62.7865 7.6 62.2365 7.74167 61.7365 8.025C61.2532 8.29167 60.8532 8.675 60.5365 9.175C60.2365 9.65833 60.0532 10.2333 59.9865 10.9ZM72.2773 0.25H75.6273V14.3C75.6273 14.9 75.7273 15.3083 75.9273 15.525C76.1273 15.725 76.4023 15.825 76.7523 15.825C77.019 15.825 77.294 15.7917 77.5773 15.725C77.8607 15.6583 78.1107 15.575 78.3273 15.475L78.7773 18.025C78.3273 18.2417 77.8023 18.4083 77.2023 18.525C76.6023 18.6417 76.0607 18.7 75.5773 18.7C74.5273 18.7 73.7107 18.425 73.1273 17.875C72.5607 17.3083 72.2773 16.5083 72.2773 15.475V0.25ZM86.3119 18.75C85.2619 18.75 84.3119 18.575 83.4619 18.225C82.6119 17.8583 81.8869 17.3667 81.2869 16.75C80.6869 16.1167 80.2202 15.4 79.8869 14.6C79.5702 13.7833 79.4119 12.925 79.4119 12.025C79.4119 10.775 79.6869 9.63333 80.2369 8.6C80.8036 7.56667 81.6036 6.74167 82.6369 6.125C83.6869 5.49167 84.9202 5.175 86.3369 5.175C87.7702 5.175 88.9952 5.49167 90.0119 6.125C91.0286 6.74167 91.8036 7.56667 92.3369 8.6C92.8869 9.61667 93.1619 10.7167 93.1619 11.9C93.1619 12.1 93.1536 12.3083 93.1369 12.525C93.1202 12.725 93.1036 12.8917 93.0869 13.025H82.9619C83.0286 13.6917 83.2202 14.275 83.5369 14.775C83.8702 15.275 84.2869 15.6583 84.7869 15.925C85.3036 16.175 85.8536 16.3 86.4369 16.3C87.1036 16.3 87.7286 16.1417 88.3119 15.825C88.9119 15.4917 89.3202 15.0583 89.5369 14.525L92.4119 15.325C92.0952 15.9917 91.6369 16.5833 91.0369 17.1C90.4536 17.6167 89.7619 18.025 88.9619 18.325C88.1619 18.6083 87.2786 18.75 86.3119 18.75ZM82.8869 10.9H89.7369C89.6702 10.2333 89.4786 9.65833 89.1619 9.175C88.8619 8.675 88.4619 8.29167 87.9619 8.025C87.4619 7.74167 86.9036 7.6 86.2869 7.6C85.6869 7.6 85.1369 7.74167 84.6369 8.025C84.1536 8.29167 83.7536 8.675 83.4369 9.175C83.1369 9.65833 82.9536 10.2333 82.8869 10.9ZM101.303 18.75C100.236 18.75 99.2777 18.575 98.4277 18.225C97.5777 17.8583 96.8527 17.3583 96.2527 16.725C95.6527 16.075 95.1861 15.3417 94.8527 14.525C94.5361 13.7083 94.3777 12.85 94.3777 11.95C94.3777 10.7167 94.6527 9.59167 95.2027 8.575C95.7694 7.54167 96.5694 6.71667 97.6027 6.1C98.6361 5.48333 99.8611 5.175 101.278 5.175C102.694 5.175 103.911 5.48333 104.928 6.1C105.944 6.71667 106.703 7.525 107.203 8.525L103.928 9.525C103.644 9.04167 103.269 8.675 102.803 8.425C102.336 8.15833 101.819 8.025 101.253 8.025C100.619 8.025 100.036 8.19167 99.5027 8.525C98.9861 8.84167 98.5777 9.3 98.2777 9.9C97.9777 10.4833 97.8277 11.1667 97.8277 11.95C97.8277 12.7167 97.9777 13.4 98.2777 14C98.5944 14.5833 99.0111 15.05 99.5277 15.4C100.044 15.7333 100.619 15.9 101.253 15.9C101.653 15.9 102.028 15.8333 102.378 15.7C102.744 15.5667 103.069 15.3833 103.353 15.15C103.636 14.9167 103.844 14.65 103.978 14.35L107.253 15.35C106.953 16 106.511 16.5833 105.928 17.1C105.361 17.6167 104.686 18.025 103.903 18.325C103.136 18.6083 102.269 18.75 101.303 18.75ZM115.242 18.75C114.175 18.75 113.217 18.575 112.367 18.225C111.517 17.8583 110.792 17.3583 110.192 16.725C109.609 16.0917 109.159 15.3667 108.842 14.55C108.525 13.7333 108.367 12.875 108.367 11.975C108.367 11.0583 108.525 10.1917 108.842 9.375C109.159 8.55833 109.609 7.83333 110.192 7.2C110.792 6.56667 111.517 6.075 112.367 5.725C113.217 5.35833 114.175 5.175 115.242 5.175C116.309 5.175 117.259 5.35833 118.092 5.725C118.942 6.075 119.667 6.56667 120.267 7.2C120.867 7.83333 121.317 8.55833 121.617 9.375C121.934 10.1917 122.092 11.0583 122.092 11.975C122.092 12.875 121.934 13.7333 121.617 14.55C121.317 15.3667 120.867 16.0917 120.267 16.725C119.684 17.3583 118.967 17.8583 118.117 18.225C117.267 18.575 116.309 18.75 115.242 18.75ZM111.817 11.975C111.817 12.7417 111.967 13.425 112.267 14.025C112.567 14.6083 112.975 15.0667 113.492 15.4C114.009 15.7333 114.592 15.9 115.242 15.9C115.875 15.9 116.45 15.7333 116.967 15.4C117.484 15.05 117.892 14.5833 118.192 14C118.509 13.4 118.667 12.7167 118.667 11.95C118.667 11.2 118.509 10.525 118.192 9.925C117.892 9.325 117.484 8.85833 116.967 8.525C116.45 8.19167 115.875 8.025 115.242 8.025C114.592 8.025 114.009 8.2 113.492 8.55C112.975 8.88333 112.567 9.35 112.267 9.95C111.967 10.5333 111.817 11.2083 111.817 11.975ZM144.703 18.5H141.353V11.15C141.353 10.1167 141.17 9.35833 140.803 8.875C140.453 8.375 139.961 8.125 139.328 8.125C138.678 8.125 138.053 8.38333 137.453 8.9C136.87 9.4 136.453 10.0583 136.203 10.875V18.5H132.853V11.15C132.853 10.1 132.67 9.33333 132.303 8.85C131.953 8.36667 131.461 8.125 130.828 8.125C130.178 8.125 129.553 8.375 128.953 8.875C128.37 9.375 127.953 10.0333 127.703 10.85V18.5H124.353V5.4H127.378V7.825C127.878 6.975 128.545 6.325 129.378 5.875C130.211 5.40833 131.17 5.175 132.253 5.175C133.336 5.175 134.178 5.44167 134.778 5.975C135.395 6.50833 135.786 7.16667 135.953 7.95C136.486 7.05 137.161 6.36667 137.978 5.9C138.811 5.41667 139.745 5.175 140.778 5.175C141.595 5.175 142.253 5.325 142.753 5.625C143.27 5.90833 143.67 6.3 143.953 6.8C144.236 7.28333 144.428 7.83333 144.528 8.45C144.645 9.06667 144.703 9.69167 144.703 10.325V18.5ZM152.445 18.75C151.328 18.75 150.261 18.5667 149.245 18.2C148.228 17.8333 147.353 17.2917 146.62 16.575L147.82 14.4C148.603 15.0333 149.37 15.5 150.12 15.8C150.886 16.1 151.62 16.25 152.32 16.25C152.97 16.25 153.486 16.1333 153.87 15.9C154.27 15.6667 154.47 15.3167 154.47 14.85C154.47 14.5333 154.361 14.2917 154.145 14.125C153.928 13.9417 153.611 13.7833 153.195 13.65C152.795 13.5167 152.303 13.3667 151.72 13.2C150.753 12.8833 149.945 12.575 149.295 12.275C148.645 11.975 148.153 11.6 147.82 11.15C147.503 10.6833 147.345 10.0917 147.345 9.375C147.345 8.50833 147.561 7.76667 147.995 7.15C148.445 6.51667 149.061 6.025 149.845 5.675C150.645 5.325 151.578 5.15 152.645 5.15C153.578 5.15 154.461 5.3 155.295 5.6C156.128 5.88333 156.886 6.35 157.57 7L156.22 9.125C155.553 8.60833 154.92 8.23333 154.32 8C153.72 7.75 153.111 7.625 152.495 7.625C152.145 7.625 151.811 7.66667 151.495 7.75C151.195 7.83333 150.945 7.975 150.745 8.175C150.561 8.35833 150.47 8.625 150.47 8.975C150.47 9.29167 150.553 9.54167 150.72 9.725C150.903 9.89167 151.17 10.0417 151.52 10.175C151.886 10.3083 152.328 10.4583 152.845 10.625C153.895 10.925 154.778 11.2333 155.495 11.55C156.228 11.8667 156.778 12.2583 157.145 12.725C157.511 13.175 157.695 13.8 157.695 14.6C157.695 15.9 157.22 16.9167 156.27 17.65C155.32 18.3833 154.045 18.75 152.445 18.75Z" fill="#067098"/>
</svg>
